<?xml version="1.0" encoding="UTF-8" standalone="no"?>
<!-- Generator: Adobe Illustrator 21.0.2, SVG Export Plug-In . SVG Version: 6.00 Build 0)  -->

<svg
   xmlns:dc="http://purl.org/dc/elements/1.1/"
   xmlns:cc="http://creativecommons.org/ns#"
   xmlns:rdf="http://www.w3.org/1999/02/22-rdf-syntax-ns#"
   xmlns:svg="http://www.w3.org/2000/svg"
   xmlns="http://www.w3.org/2000/svg"
   xmlns:xlink="http://www.w3.org/1999/xlink"
   xmlns:sodipodi="http://sodipodi.sourceforge.net/DTD/sodipodi-0.dtd"
   xmlns:inkscape="http://www.inkscape.org/namespaces/inkscape"
   version="1.1"
   x="0px"
   y="0px"
   viewBox="0 0 935.23435 244.45028"
   xml:space="preserve"
   id="svg2576"
   sodipodi:docname="data-object: ticket.svg"
   width="935.23438"
   height="244.45029"
   inkscape:version="0.92.4 (5da689c313, 2019-01-14)"><metadata
   id="metadata2582"><rdf:RDF><cc:Work
       rdf:about=""><dc:format>image/svg+xml</dc:format><dc:type
         rdf:resource="http://purl.org/dc/dcmitype/StillImage" /><dc:title></dc:title></cc:Work></rdf:RDF></metadata><defs
   id="defs2580"><linearGradient
     id="SVGID_1_"
     gradientUnits="userSpaceOnUse"
     x1="157.18919"
     y1="0.02661352"
     x2="157.18919"
     y2="186.81889"
     gradientTransform="matrix(1.2232081,0,0,1.2232081,479.25531,96.158459)">
			<stop
   offset="0.1288"
   style="stop-color:#E6E6E6"
   id="stop2191" />
			<stop
   offset="0.3545"
   style="stop-color:#FBFBFB"
   id="stop2193" />
			<stop
   offset="0.64"
   style="stop-color:#E9E9E9"
   id="stop2195" />
			<stop
   offset="0.9567"
   style="stop-color:#CFCFCE"
   id="stop2197" />
			<stop
   offset="1"
   style="stop-color:#CDCBCB"
   id="stop2199" />
		</linearGradient></defs><sodipodi:namedview
   pagecolor="#ffffff"
   bordercolor="#666666"
   borderopacity="1"
   objecttolerance="10"
   gridtolerance="10"
   guidetolerance="10"
   inkscape:pageopacity="0"
   inkscape:pageshadow="2"
   inkscape:window-width="2490"
   inkscape:window-height="1376"
   id="namedview2578"
   showgrid="false"
   fit-margin-top="0"
   fit-margin-left="0"
   fit-margin-right="0"
   fit-margin-bottom="0"
   inkscape:zoom="1"
   inkscape:cx="366.26681"
   inkscape:cy="166.43814"
   inkscape:window-x="70"
   inkscape:window-y="27"
   inkscape:window-maximized="1"
   inkscape:current-layer="svg2576" />
<style
   type="text/css"
   id="style2186">
	.st0{fill:#365240;}
	.st1{fill:url(#SVGID_1_);}
	.st2{fill:none;stroke:#BDBDBC;stroke-width:0.8763;stroke-miterlimit:10;}
	.st3{clip-path:url(#SVGID_2_);}
	.st4{fill:url(#SVGID_3_);}
	.st5{fill:#F5A608;}
	.st6{fill:#010202;}
	.st7{fill:#686868;}
	.st8{fill:none;}
	.st9{opacity:0.5;}
	.st10{fill:#7E7E7E;}
	.st11{fill:#D6373F;}
	.st12{fill:url(#SVGID_4_);}
	.st13{clip-path:url(#SVGID_5_);}
	.st14{fill:url(#SVGID_6_);}
	.st15{fill:#54A9C4;}
	.st16{fill:url(#SVGID_7_);}
	.st17{clip-path:url(#SVGID_8_);}
	.st18{fill:url(#SVGID_9_);}
	.st19{fill:#67AC8A;}
</style>
<g
   id="Laag_1"
   transform="translate(105.71682,-102.08787)">
</g>

<text
   xml:space="preserve"
   style="font-style:normal;font-weight:normal;font-size:40px;line-height:1.25;font-family:sans-serif;letter-spacing:0px;word-spacing:0px;fill:#000000;fill-opacity:1;stroke:none;stroke-width:0.99999994"
   x="0"
   y="34.158733"
   id="text955"><tspan
     sodipodi:role="line"
     id="tspan953"
     x="0"
     y="34.158733"
     style="font-style:normal;font-variant:normal;font-weight:normal;font-stretch:normal;font-size:40px;font-family:monospace;-inkscape-font-specification:'monospace, Normal';font-variant-ligatures:normal;font-variant-caps:normal;font-variant-numeric:normal;font-feature-settings:normal;text-align:start;writing-mode:lr-tb;text-anchor:start;stroke-width:0.99999994">{</tspan><tspan
     sodipodi:role="line"
     x="0"
     y="84.158737"
     style="font-style:normal;font-variant:normal;font-weight:normal;font-stretch:normal;font-size:40px;font-family:monospace;-inkscape-font-specification:'monospace, Normal';font-variant-ligatures:normal;font-variant-caps:normal;font-variant-numeric:normal;font-feature-settings:normal;text-align:start;writing-mode:lr-tb;text-anchor:start;stroke-width:0.99999994"
     id="tspan957"> &quot;numero&quot;: 24,</tspan><tspan
     sodipodi:role="line"
     x="0"
     y="134.15874"
     style="font-style:normal;font-variant:normal;font-weight:normal;font-stretch:normal;font-size:40px;font-family:monospace;-inkscape-font-specification:'monospace, Normal';font-variant-ligatures:normal;font-variant-caps:normal;font-variant-numeric:normal;font-feature-settings:normal;text-align:start;writing-mode:lr-tb;text-anchor:start;stroke-width:0.99999994"
     id="tspan959"> &quot;class&quot;: 2,</tspan><tspan
     sodipodi:role="line"
     x="0"
     y="184.15874"
     style="font-style:normal;font-variant:normal;font-weight:normal;font-stretch:normal;font-size:40px;font-family:monospace;-inkscape-font-specification:'monospace, Normal';font-variant-ligatures:normal;font-variant-caps:normal;font-variant-numeric:normal;font-feature-settings:normal;text-align:start;writing-mode:lr-tb;text-anchor:start;stroke-width:0.99999994"
     id="tspan961"> &quot;start&quot;: &quot;2020010120&quot;</tspan><tspan
     sodipodi:role="line"
     x="0"
     y="234.15874"
     style="font-style:normal;font-variant:normal;font-weight:normal;font-stretch:normal;font-size:40px;font-family:monospace;-inkscape-font-specification:'monospace, Normal';font-variant-ligatures:normal;font-variant-caps:normal;font-variant-numeric:normal;font-feature-settings:normal;text-align:start;writing-mode:lr-tb;text-anchor:start;stroke-width:0.99999994"
     id="tspan963">}</tspan></text>
<g
   id="g3514"
   transform="rotate(24.909236,910.39998,323.19735)"
   inkscape:transform-center-x="-68.933796"
   inkscape:transform-center-y="34.605551"><path
     style="fill:#365240;stroke-width:1.22320807"
     inkscape:connector-curvature="0"
     id="path2189"
     d="m 725.60942,124.65921 c 4.15891,-0.73393 6.84997,-4.77051 5.99372,-8.8071 0,0 0,0 0,-0.12232 0,-0.12232 0,-0.24464 0,-0.24464 l 99.3245,-19.326691 c 0.97857,-0.122321 1.83481,0.366962 1.95713,1.345529 l 2.81338,14.433852 h -0.12232 c -4.15891,0.73393 -6.84997,4.77052 -6.11604,8.92942 0.73392,4.15891 4.77051,6.84997 8.92942,6.11604 v 0 h 0.12232 l 1.46785,7.58389 c 0,0.24464 -0.12232,0.48929 -0.36696,0.61161 v 0 c -4.15891,0.85624 -6.84997,4.77051 -5.99372,8.92942 0.85624,4.1589 4.77051,6.84996 8.92942,5.99372 v 0 c 0.24464,0 0.48928,0.12232 0.6116,0.36696 0,0 0,0 0,0 l 1.34553,7.09461 c 0,0.24464 -0.12232,0.48928 -0.36696,0.6116 0,0 0,0 0,0 h -0.36697 c -4.1589,0.85625 -6.84996,4.77051 -5.99372,8.92942 0.85625,4.15891 4.77052,6.84996 8.92942,5.99372 l 0.36697,-0.12232 c 0.24464,0 0.48928,0.12232 0.6116,0.36696 0,0 0,0 0,0 l 1.34553,7.09461 c 0,0.24464 -0.12232,0.48928 -0.36696,0.6116 0,0 0,0 0,0 v 0 c -4.15891,0.85625 -6.84997,4.77051 -5.99372,8.92942 0.85624,4.15891 4.77051,6.84997 8.92942,5.99372 v 0 0 c 0.24464,0 0.48928,0.12232 0.6116,0.36696 l 1.46785,7.58389 h -0.12232 c -4.15891,0.85625 -6.84997,4.77051 -5.99372,8.92942 0.85624,4.15891 4.77051,6.84997 8.92942,5.99372 h 0.12232 l 1.46785,7.58389 c 0,0.24464 -0.12232,0.48928 -0.36696,0.61161 v 0 c -4.15891,0.85624 -6.84997,4.77051 -5.99372,8.92941 0.85624,4.15891 4.77051,6.84997 8.92942,5.99372 v 0 c 0.24464,0 0.48928,0.12233 0.6116,0.36697 0,0 0,0 0,0 l 2.69106,13.94457 c 0.12232,0.85624 -0.36696,1.83481 -1.34553,1.95713 0,0 0,0 0,0 l -98.34593,19.08205 c -0.61161,0.12232 -1.10089,-0.24464 -1.22321,-0.85625 v 0 c -0.73393,-4.1589 -4.77051,-6.84996 -8.8071,-5.99372 0,0 0,0 -0.12232,0 z"
     class="st0" /><path
     inkscape:connector-curvature="0"
     style="fill:url(#SVGID_1_);stroke-width:1.22320807"
     id="path2202"
     d="m 860.40695,242.33183 c -4.1589,0.85624 -8.19549,-1.95714 -8.92942,-5.99372 -0.85624,-4.15891 1.95714,-8.1955 5.99372,-8.92942 v 0 c 0.24465,0 0.48929,-0.36696 0.36697,-0.61161 l -1.46785,-7.58389 h -0.12232 c -4.15891,0.85625 -8.1955,-1.95713 -8.92942,-5.99372 -0.85625,-4.1589 1.95713,-8.19549 5.99372,-8.92941 h 0.12232 l -1.46785,-7.5839 c 0,-0.24464 -0.36696,-0.48928 -0.61161,-0.36696 v 0 c -4.1589,0.85625 -8.19549,-1.95713 -8.92942,-5.99372 -0.85624,-4.1589 1.95714,-8.19549 5.99372,-8.92942 v 0 c 0.24465,0 0.48929,-0.36696 0.36697,-0.6116 0,0 0,0 0,0 l -1.34553,-7.09461 c 0,-0.24464 -0.24464,-0.48928 -0.61161,-0.36696 0,0 0,0 0,0 l -0.36696,0.12232 c -4.15891,0.73393 -8.19549,-1.95713 -8.92942,-6.11604 -0.73392,-4.15891 1.95714,-8.19549 6.11604,-8.92942 h 0.36697 c 0.24464,0 0.48928,-0.24464 0.36696,-0.6116 0,0 0,0 0,0 l -1.34553,-7.09461 c 0,-0.24464 -0.36696,-0.48928 -0.61161,-0.36696 0,0 0,0 0,0 v 0 c -4.1589,0.85624 -8.19549,-1.95714 -8.92941,-5.99372 -0.85625,-4.15891 1.95713,-8.1955 5.99372,-8.92942 v 0 c 0.24464,0 0.48928,-0.36696 0.36696,-0.61161 l -1.46785,-7.58389 h -0.12232 c -4.15891,0.85625 -8.1955,-1.95713 -8.92942,-5.99371 -0.73393,-4.03659 1.95713,-8.1955 5.99372,-8.92942 v 0 h 0.12232 l -2.81338,-14.43386 c -0.12232,-0.978566 -1.10089,-1.467849 -1.95713,-1.345529 l -99.44682,19.204369 c 0,0.12232 0,0.24464 0,0.24464 0.85624,4.15891 -1.95713,8.19549 -5.99372,8.92942 -4.15891,0.85625 -8.1955,-1.95713 -8.92942,-5.99372 v 0 c 0,-0.12232 0,-0.24464 0,-0.24464 l -224.70333,43.17924 c -8.31781,1.59017 -13.69993,9.54103 -12.10976,17.85884 0,0 0,0 0,0 l 9.17406,47.70512 c 10.88655,-1.59017 20.42758,4.03658 22.62935,14.92314 2.20178,10.88655 -4.89283,18.8374 -15.53474,21.28382 l 9.4187,48.68368 c 1.59017,8.31782 9.66335,13.69993 17.85884,12.10976 l 223.9694,-43.42389 c 0.61161,-0.12232 0.97857,-0.6116 0.85625,-1.22321 v 0 c -0.85625,-4.1589 1.95713,-8.19549 5.99372,-8.92941 4.15891,-0.85625 8.19549,1.95713 8.92942,5.99372 v 0 0 c 0.12232,0.6116 0.6116,0.97856 1.22321,0.85624 l 98.34593,-19.08205 c 0.97856,-0.12232 1.46785,-1.10088 1.34553,-1.95713 0,0 0,0 0,0 l -2.69106,-13.94457 c 0,-0.24464 -0.24464,-0.36696 -0.61161,-0.36696 0.12232,0 0.12232,0 0,0 z"
     class="st1" /><path
     style="fill:none;stroke:#bdbdbc;stroke-width:1.07189727;stroke-miterlimit:10"
     inkscape:connector-curvature="0"
     id="path2204"
     d="m 738.57543,272.30043 -217.4864,42.07835 c -2.81338,0.48929 -5.38212,-1.2232 -5.99372,-4.03658 l -7.70621,-40.24355 c 4.1589,-2.20177 7.58389,-5.50444 10.27494,-9.4187 3.91427,-5.99372 5.2598,-13.33297 3.79195,-20.30526 -1.22321,-7.0946 -5.13747,-13.33296 -10.88655,-17.61419 -3.91427,-2.9357 -8.44014,-4.77051 -13.33297,-5.38212 l -7.58389,-39.50962 c -0.48928,-2.81338 1.22321,-5.38212 4.03659,-5.99372 0,0 0,0 0,0 L 710.8086,129.919 l 6.72765,5.62676 24.95344,129.17078 z"
     class="st2" /><g
     transform="matrix(1.2232081,0,0,1.2232081,479.25531,96.158459)"
     id="g2243">
			<defs
   id="defs2207"><path
     inkscape:connector-curvature="0"
     d="m 201.4,23.3 c 3.4,-0.6 5.6,-3.9 4.9,-7.2 0,0 0,0 0,-0.1 0,-0.1 0,-0.2 0,-0.2 L 287.5,0 c 0.8,-0.1 1.5,0.3 1.6,1.1 l 2.3,11.8 h -0.1 c -3.4,0.6 -5.6,3.9 -5,7.3 0.6,3.4 3.9,5.6 7.3,5 v 0 h 0.1 l 1.2,6.2 c 0,0.2 -0.1,0.4 -0.3,0.5 v 0 c -3.4,0.7 -5.6,3.9 -4.9,7.3 0.7,3.4 3.9,5.6 7.3,4.9 v 0 c 0.2,0 0.4,0.1 0.5,0.3 0,0 0,0 0,0 l 1.1,5.8 c 0,0.2 -0.1,0.4 -0.3,0.5 0,0 0,0 0,0 H 298 c -3.4,0.7 -5.6,3.9 -4.9,7.3 0.7,3.4 3.9,5.6 7.3,4.9 l 0.3,-0.1 c 0.2,0 0.4,0.1 0.5,0.3 0,0 0,0 0,0 l 1.1,5.8 c 0,0.2 -0.1,0.4 -0.3,0.5 0,0 0,0 0,0 v 0 c -3.4,0.7 -5.6,3.9 -4.9,7.3 0.7,3.4 3.9,5.6 7.3,4.9 v 0 0 c 0.2,0 0.4,0.1 0.5,0.3 l 1.2,6.2 H 306 c -3.4,0.7 -5.6,3.9 -4.9,7.3 0.7,3.4 3.9,5.6 7.3,4.9 h 0.1 l 1.2,6.2 c 0,0.2 -0.1,0.4 -0.3,0.5 v 0 c -3.4,0.7 -5.6,3.9 -4.9,7.3 0.7,3.4 3.9,5.6 7.3,4.9 v 0 c 0.2,0 0.4,0.1 0.5,0.3 0,0 0,0 0,0 l 2.2,11.4 c 0.1,0.7 -0.3,1.5 -1.1,1.6 0,0 0,0 0,0 L 233,148.1 c -0.5,0.1 -0.9,-0.2 -1,-0.7 v 0 c -0.6,-3.4 -3.9,-5.6 -7.2,-4.9 0,0 0,0 -0.1,0 z"
     id="SVGID_22_" /></defs>
			<clipPath
   id="SVGID_2_">
				<use
   height="100%"
   width="100%"
   y="0"
   x="0"
   id="use2209"
   style="overflow:visible"
   xlink:href="#SVGID_22_" />
			</clipPath>
			<g
   id="g2241"
   clip-path="url(#SVGID_2_)"
   class="st3">
				<linearGradient
   y2="178.196"
   x2="267.5354"
   y1="-29.701"
   x1="267.5354"
   gradientUnits="userSpaceOnUse"
   id="SVGID_3_">
					<stop
   id="stop2212"
   style="stop-color:#FDDD43"
   offset="0" />
					<stop
   id="stop2214"
   style="stop-color:#FCDB40"
   offset="0.2258" />
					<stop
   id="stop2216"
   style="stop-color:#FCD32E"
   offset="0.5022" />
					<stop
   id="stop2218"
   style="stop-color:#F5C616"
   offset="0.8038" />
					<stop
   id="stop2220"
   style="stop-color:#F1BB0B"
   offset="1" />
				</linearGradient>
				<path
   inkscape:connector-curvature="0"
   style="fill:url(#SVGID_3_)"
   id="path2223"
   d="m 288.9,-25 c -0.9,3 -4,4.6 -7,3.7 -0.9,-0.3 -1.7,-0.7 -2.3,-1.4 l -67,17.2 c 0.5,0.6 0.8,1.4 1,2.1 0.9,3.4 -1.2,6.9 -4.6,7.8 -3.4,0.9 -6.9,-1.2 -7.8,-4.6 C 201,-1 201,-1.8 201,-2.5 l -18.2,4.7 38.9,151.7 c 1.7,0 3.1,1.3 3.1,3 0,1.2 -0.6,2.3 -1.7,2.8 l 4.8,18.6 11.6,-3 c 0,-0.1 -0.1,-0.3 -0.1,-0.4 -0.6,-2.7 1,-5.5 3.8,-6.1 2.7,-0.6 5.4,1 6.1,3.6 0,0.1 0.1,0.3 0.1,0.4 l 103,-26.4 -5.3,-20.6 c -0.7,0.6 -1.6,1 -2.5,1.2 -3.4,0.9 -6.9,-1.2 -7.8,-4.6 -0.9,-3.4 1.2,-6.9 4.6,-7.8 0.9,-0.2 1.9,-0.3 2.8,-0.1 l -37,-144.2 z"
   class="st4" />
				<path
   style="fill:#f5a608"
   inkscape:connector-curvature="0"
   id="path2225"
   d="m 347.1,134.9 c 0.9,3.4 4.4,5.5 7.8,4.6 0,0 0,0 0,0 0.9,-0.2 1.8,-0.7 2.5,-1.2 L 354.5,127 c -3.5,-0.7 -6.8,1.6 -7.5,5.1 -0.2,0.9 -0.1,1.8 0.1,2.8 z"
   class="st5" />
				<path
   style="fill:#f5a608"
   inkscape:connector-curvature="0"
   id="path2227"
   d="m 253.4,181.1 c -2.7,0.7 -4.4,3.5 -3.7,6.2 0,0 0,0 0,0 0,0.1 0.1,0.3 0.1,0.4 l 9.9,-2.5 c 0,-0.1 -0.1,-0.3 -0.1,-0.4 -0.7,-2.8 -3.5,-4.4 -6.2,-3.7 z"
   class="st5" />
				<path
   style="fill:#f5a608"
   inkscape:connector-curvature="0"
   id="path2229"
   d="m 235,168.6 c -0.4,-1.4 -1.6,-2.3 -3,-2.3 l 1.5,5.8 c 1.2,-0.6 1.9,-2.1 1.5,-3.5 z"
   class="st5" />
				<path
   style="fill:#f5a608"
   inkscape:connector-curvature="0"
   id="path2231"
   d="m 295.3,-8.7 c 1.9,-0.5 3.4,-1.9 4,-3.8 l -9.3,2.4 c 1.3,1.3 3.4,1.9 5.3,1.4 z"
   class="st5" />
				<path
   style="fill:#f5a608"
   inkscape:connector-curvature="0"
   id="path2233"
   d="m 313.3,101.7 c -0.9,-3.4 1.2,-6.9 4.6,-7.8 3.4,-0.9 6.9,1.2 7.8,4.6 0.9,3.4 -1.2,6.9 -4.6,7.8 0,0 0,0 0,0 -3.4,0.9 -6.9,-1.2 -7.8,-4.6"
   class="st5" />
				<path
   style="fill:#f5a608"
   inkscape:connector-curvature="0"
   id="path2235"
   d="m 307.8,18.1 c -0.4,-1.6 0.6,-3.3 2.2,-3.7 1.6,-0.4 3.3,0.6 3.7,2.2 0.4,1.6 -0.6,3.3 -2.2,3.7 -1.6,0.4 -3.2,-0.6 -3.7,-2.2"
   class="st5" />
				<path
   style="fill:#f5a608"
   inkscape:connector-curvature="0"
   id="path2237"
   d="m 301.2,153.1 c -0.2,-0.9 0.3,-1.8 1.2,-2 0.9,-0.2 1.8,0.3 2,1.2 0.2,0.9 -0.3,1.8 -1.2,2 0,0 0,0 0,0 -0.9,0.2 -1.8,-0.3 -2,-1.2"
   class="st5" />
				<path
   style="fill:#f5a608"
   inkscape:connector-curvature="0"
   id="path2239"
   d="m 322,66.4 c -0.2,-0.9 0.3,-1.8 1.2,-2 0.9,-0.2 1.8,0.3 2,1.2 0.2,0.9 -0.3,1.8 -1.2,2 0,0 0,0 0,0 -0.9,0.3 -1.8,-0.2 -2,-1.2 0,0.1 0,0 0,0"
   class="st5" />
			</g>
		</g><rect
     x="716.87256"
     y="279.46835"
     transform="rotate(-10.952611)"
     class="st6"
     width="55.656837"
     height="5.3821998"
     id="rect2245"
     style="fill:#010202;stroke-width:1.22322714" /><rect
     x="716.89807"
     y="287.69098"
     transform="rotate(-10.952611)"
     class="st6"
     width="55.656837"
     height="5.3821998"
     id="rect2247"
     style="fill:#010202;stroke-width:1.22322714" /><rect
     x="716.88171"
     y="320.70572"
     transform="rotate(-10.952611)"
     class="st6"
     width="55.656837"
     height="5.3821998"
     id="rect2249"
     style="fill:#010202;stroke-width:1.22322714" /><rect
     x="716.89093"
     y="361.82068"
     transform="rotate(-10.952611)"
     class="st6"
     width="55.656837"
     height="5.3821998"
     id="rect2251"
     style="fill:#010202;stroke-width:1.22322714" /><rect
     x="716.8042"
     y="297.25897"
     transform="rotate(-10.952611)"
     class="st6"
     width="55.656837"
     height="2.6910999"
     id="rect2253"
     style="fill:#010202;stroke-width:1.22322714" /><rect
     x="716.82983"
     y="305.60596"
     transform="rotate(-10.952611)"
     class="st6"
     width="55.656837"
     height="2.6910999"
     id="rect2255"
     style="fill:#010202;stroke-width:1.22322714" /><rect
     x="716.85529"
     y="313.8287"
     transform="rotate(-10.952611)"
     class="st6"
     width="55.656837"
     height="2.6910999"
     id="rect2257"
     style="fill:#010202;stroke-width:1.22322714" /><rect
     x="716.9082"
     y="330.27386"
     transform="rotate(-10.952611)"
     class="st6"
     width="55.656837"
     height="2.6910999"
     id="rect2259"
     style="fill:#010202;stroke-width:1.22322714" /><rect
     x="716.81342"
     y="338.49625"
     transform="rotate(-10.952611)"
     class="st6"
     width="55.656837"
     height="2.6910999"
     id="rect2261"
     style="fill:#010202;stroke-width:1.22322714" /><rect
     x="716.83905"
     y="346.72104"
     transform="rotate(-10.952611)"
     class="st6"
     width="55.656837"
     height="2.6910999"
     id="rect2263"
     style="fill:#010202;stroke-width:1.22322714" /><rect
     x="716.86658"
     y="354.94342"
     transform="rotate(-10.952611)"
     class="st6"
     width="55.656837"
     height="2.6910999"
     id="rect2265"
     style="fill:#010202;stroke-width:1.22322714" /><g
     transform="matrix(1.2232081,0,0,1.2232081,479.25531,90.158459)"
     style="opacity:0.5"
     id="g2299"
     class="st9">
			<path
   style="fill:#7e7e7e"
   inkscape:connector-curvature="0"
   id="path2287"
   d="m 56.4,77.4 -6.2,1.2 -1,-5.2 18.7,-3.6 1,5.2 -6.2,1.2 3.5,18.4 -6.2,1.2 z"
   class="st10" />
			<path
   style="fill:#7e7e7e"
   inkscape:connector-curvature="0"
   id="path2289"
   d="m 71.4,69.1 6.2,-1.2 4.5,23.6 -6.2,1.2 z"
   class="st10" />
			<path
   style="fill:#7e7e7e"
   inkscape:connector-curvature="0"
   id="path2291"
   d="m 93.3,64.4 c 3,-0.6 5.8,0.4 7.8,1.7 l -2.7,4.5 c -1.4,-0.8 -2.5,-1.2 -4,-0.9 -2.8,0.5 -4.7,3.6 -3.9,7.8 0.9,4.4 3.4,6.5 6.4,5.9 1.8,-0.3 3,-1.4 3.8,-2.7 l 4.1,3.1 c -1.5,2.7 -4.1,4.4 -7,5 C 91.6,90 85.6,87 84.1,78.9 82.6,71.1 87.2,65.6 93.3,64.4 Z"
   class="st10" />
			<path
   style="fill:#7e7e7e"
   inkscape:connector-curvature="0"
   id="path2293"
   d="m 104.1,62.8 6.2,-1.2 1.7,8.8 h 0.1 l 4.3,-9.9 6.8,-1.3 -5.2,11 11.1,12.4 -6.8,1.3 -7,-8.1 -1.6,3.6 1.1,5.9 -6.2,1.2 z"
   class="st10" />
			<path
   style="fill:#7e7e7e"
   inkscape:connector-curvature="0"
   id="path2295"
   d="m 127,58.4 15.3,-2.9 1,5.2 -9,1.7 0.7,3.7 7.7,-1.5 1,5.2 -7.7,1.5 0.8,4.2 9.4,-1.8 1,5.2 -15.6,3 z"
   class="st10" />
			<path
   style="fill:#7e7e7e"
   inkscape:connector-curvature="0"
   id="path2297"
   d="m 152.7,58.8 -6.2,1.2 -1,-5.2 18.7,-3.6 1,5.2 -6.2,1.2 3.5,18.4 -6.2,1.2 z"
   class="st10" />
		</g><g
     transform="matrix(1.2232081,0,0,1.2232081,479.25531,90.158459)"
     id="g2307">
			<path
   style="fill:#d6373f"
   inkscape:connector-curvature="0"
   id="path2301"
   d="m 58.3,106.2 4,-0.8 2.7,6 c 0.7,1.4 1.2,2.9 1.9,4.3 H 67 c 0.1,-1.6 0.1,-3.1 0.2,-4.7 l 0.2,-6.5 3.9,-0.7 -1.5,15.1 -4.6,0.9 z"
   class="st11" />
			<path
   style="fill:#d6373f"
   inkscape:connector-curvature="0"
   id="path2303"
   d="m 72.7,103.4 3.8,-0.7 2.8,14.3 -3.8,0.7 z"
   class="st11" />
			<path
   style="fill:#d6373f"
   inkscape:connector-curvature="0"
   id="path2305"
   d="m 79.7,102 5.5,-1.1 c 3.1,-0.6 5.9,0 6.6,3.6 0.7,3.5 -1.8,5.5 -4.8,6.1 l -1.8,0.3 0.9,4.5 -3.8,0.7 z m 6.6,5.8 c 1.5,-0.3 2.1,-1.2 1.8,-2.4 -0.2,-1.3 -1.1,-1.6 -2.5,-1.3 l -1.6,0.3 0.7,3.8 z"
   class="st11" />
		</g><text
     transform="rotate(-12.108079)"
     id="text3348"
     y="417.89429"
     x="697.64185"
     style="font-style:normal;font-weight:normal;font-size:40px;line-height:1.25;font-family:sans-serif;letter-spacing:0px;word-spacing:0px;fill:#000000;fill-opacity:1;stroke:none"
     xml:space="preserve"><tspan
       style="font-style:normal;font-variant:normal;font-weight:normal;font-stretch:normal;font-size:32px;font-family:sans-serif;-inkscape-font-specification:'sans-serif, Normal';font-variant-ligatures:normal;font-variant-caps:normal;font-variant-numeric:normal;font-feature-settings:normal;text-align:start;writing-mode:lr-tb;text-anchor:start"
       y="417.89429"
       x="697.64185"
       id="tspan3346"
       sodipodi:role="line">№ 24</tspan></text>
<text
     transform="rotate(-8.9737533)"
     id="text3428"
     y="349.98535"
     x="514.29431"
     style="font-style:normal;font-weight:normal;font-size:40px;line-height:1.25;font-family:sans-serif;letter-spacing:0px;word-spacing:0px;fill:#000000;fill-opacity:1;stroke:none"
     xml:space="preserve"><tspan
       id="tspan3454"
       style="font-style:normal;font-variant:normal;font-weight:normal;font-stretch:normal;font-size:20px;font-family:sans-serif;-inkscape-font-specification:'sans-serif, Normal';font-variant-ligatures:normal;font-variant-caps:normal;font-variant-numeric:normal;font-feature-settings:normal;text-align:start;writing-mode:lr-tb;text-anchor:start"
       y="349.98535"
       x="514.29431"
       sodipodi:role="line">January 1, 2020</tspan></text>
<text
     transform="rotate(-8.9737533)"
     id="text3460"
     y="381.98535"
     x="511.29431"
     style="font-style:normal;font-weight:normal;font-size:40px;line-height:1.25;font-family:sans-serif;letter-spacing:0px;word-spacing:0px;fill:#000000;fill-opacity:1;stroke:none"
     xml:space="preserve"><tspan
       style="font-style:normal;font-variant:normal;font-weight:normal;font-stretch:normal;font-size:24px;font-family:sans-serif;-inkscape-font-specification:'sans-serif, Normal';font-variant-ligatures:normal;font-variant-caps:normal;font-variant-numeric:normal;font-feature-settings:normal;text-align:start;writing-mode:lr-tb;text-anchor:start"
       y="381.98535"
       x="511.29431"
       id="tspan3458"
       sodipodi:role="line">20:00</tspan></text>
</g></svg>