<svg id="Layer_1" data-name="Layer 1" xmlns="http://www.w3.org/2000/svg" viewBox="0 0 639 354"><defs><style>.cls-1{fill:#fafafa;}.cls-14,.cls-2{fill:#e1d5e7;stroke:#9673a6;}.cls-3{isolation:isolate;font-size:12px;font-family:HelveticaNeue, Helvetica Neue;}.cls-4{letter-spacing:-0.11em;}.cls-13,.cls-5{fill:#d5e8d4;}.cls-13,.cls-5,.cls-6{stroke:#82b366;}.cls-11,.cls-6{fill:none;}.cls-10,.cls-11,.cls-13,.cls-14,.cls-6,.cls-7,.cls-8{stroke-miterlimit:10;}.cls-7{fill:#dae8fc;stroke:#6c8ebf;}.cls-8{fill:#f8cecc;stroke:#b85450;}.cls-9{letter-spacing:-0.06em;}.cls-10{fill:#fff2cc;}.cls-10,.cls-11{stroke:#d6b656;}.cls-12{letter-spacing:-0.02em;}</style></defs><title>token-negotiation</title><rect class="cls-1" width="639" height="354"/><rect class="cls-2" x="236" y="194" width="120" height="72"/><text class="cls-3" transform="translate(276.26 226.5)">Cinema<tspan class="cls-4" x="-7.33" y="14.4">T</tspan><tspan x="-1.78" y="14.4">oken Site</tspan></text><rect class="cls-5" x="372" y="189" width="153" height="60"/><path class="cls-6" d="M387,189v60m123-60v60"/><text class="cls-3" transform="translate(396.43 223.67)">Event PoS Machine</text><path class="cls-7" d="M313,171l20-60h80l20,60Z"/><text class="cls-3" transform="translate(342.37 145.02)"><tspan class="cls-4">T</tspan><tspan x="5.56" y="0">oll Booths</tspan></text><path class="cls-8" d="M219,105c-24,0-30,20-10.8,24-19.2,8.8,2.4,28,18,20,10.8,16,46.8,16,58.8,0,24,0,24-16,9-24,15-16-9-32-30-24C249,89,225,89,219,105Z"/><text class="cls-3" transform="translate(226.05 124.5)"><tspan class="cls-4">T</tspan><tspan x="5.56" y="0">okenFlix</tspan><tspan class="cls-9" x="3.67" y="14.4">W</tspan><tspan x="14.1" y="14.4">ebsite</tspan></text><path class="cls-10" d="M112,177c0-8.28,23.73-15,53-15,14.06,0,27.54,1.58,37.48,4.39S218,173,218,177v65c0,8.28-23.73,15-53,15s-53-6.72-53-15Z"/><path class="cls-11" d="M218,177c0,8.28-23.73,15-53,15s-53-6.72-53-15"/><text class="cls-3" transform="translate(158.05 215.5)">IoT<tspan x="-9.78" y="14.4">Device</tspan></text><path class="cls-8" d="M300,46V31q0-10-10-10H190q-10,0-10,10V61q0,10,10,10h20a17.65,17.65,0,0,1,15.55,8.32L240,101V81q0-10,10-10h40q10,0,10-10Z"/><text class="cls-3" transform="translate(201.34 42.5)">Do you have a<tspan x="-14.56" y="14.4">subscription token?</tspan></text><path class="cls-10" d="M183,120V105q0-10-10-10H77q-10,0-10,10v30q0,10,10,10H95a17.65,17.65,0,0,1,15.55,8.32L125,175V155q0-10,10-10h38q10,0,10-10Z"/><text class="cls-3" transform="translate(81.34 115.5)">Do you have this<tspan x="2.22" y="14.4">p</tspan><tspan class="cls-12" x="9.34" y="14.4">r</tspan><tspan x="13.12" y="14.4">operty token?</tspan></text><path class="cls-7" d="M343,65.5v-15q0-10,10-10H466q10,0,10,10v30q0,10-10,10H439.5A17.65,17.65,0,0,0,424,98.82L409.5,120.5v-20q0-10-10-10H353q-10,0-10-10Z"/><text class="cls-3" transform="translate(350.09 61.5)">Do you have a driver&apos;s<tspan x="21.22" y="14.4">license token?</tspan></text><path class="cls-13" d="M446,139V124q0-10,10-10H556q10,0,10,10v30q0,10-10,10H536a17.65,17.65,0,0,0-15.55,8.32L506,194V174q0-10-10-10H456q-10,0-10-10Z"/><text class="cls-3" transform="translate(467.55 133.5)">Do you have a<tspan x="-4.9" y="14.4">payment token?</tspan></text><path class="cls-14" d="M284,306v15q0,10,10,10H394q10,0,10-10V291q0-10-10-10H374a17.65,17.65,0,0,1-15.55-8.32L344,251v20q0,10-10,10H294q-10,0-10,10Z"/><text class="cls-3" transform="translate(293.23 302.5)">Do you have a +18<tspan x="20.5" y="14.4">age token?</tspan></text></svg>