<svg id="Layer_1" data-name="Layer 1" xmlns="http://www.w3.org/2000/svg" viewBox="0 0 642 508"><defs><style>.cls-1{fill:#fafafa;}.cls-2{fill:#fff;}.cls-15,.cls-2,.cls-5,.cls-6{stroke:#000;}.cls-15,.cls-3,.cls-8{isolation:isolate;}.cls-3,.cls-8{font-size:12px;}.cls-3{font-family:HelveticaNeue-Medium, Helvetica Neue;font-weight:500;}.cls-4{font-family:HelveticaNeue-Italic, Helvetica Neue;font-style:italic;}.cls-17,.cls-4{font-weight:400;}.cls-18,.cls-19,.cls-5{fill:none;}.cls-18,.cls-5,.cls-6{stroke-miterlimit:10;}.cls-7{fill:#d5e8d4;stroke:#82b366;}.cls-17,.cls-8{font-family:HelveticaNeue, Helvetica Neue;}.cls-9{letter-spacing:-0.11em;}.cls-10{letter-spacing:0em;}.cls-11{letter-spacing:-0.11em;}.cls-12{letter-spacing:-0.02em;}.cls-13{fill:#f8cecc;stroke:#b85450;}.cls-14{letter-spacing:-0.06em;}.cls-15{opacity:0.25;}.cls-16{letter-spacing:-0.09em;}.cls-18{stroke:#009245;}.cls-18,.cls-19{stroke-linecap:round;stroke-width:2px;}.cls-19{stroke:#c1272d;}</style></defs><title>token-negotiation</title><rect class="cls-1" width="642" height="508"/><rect class="cls-2" x="22" y="24" width="219" height="60"/><text class="cls-3" transform="translate(80.25 50.5)">Marketplace Asks:<tspan class="cls-4"><tspan x="-14.09" y="14.4">is this token whitelisted?</tspan></tspan></text><path class="cls-5" d="M300,54H247.37"/><path class="cls-6" d="M242.12,54l7-3.5L247.37,54l1.75,3.5Z"/><rect class="cls-7" x="300" y="24" width="120" height="60" rx="9"/><text class="cls-8" transform="translate(318.76 50.5)">Payment <tspan class="cls-9" x="50.69" y="0">T</tspan><tspan class="cls-10" x="56.24" y="0">oken</tspan><tspan x="21.13" y="14.4">‘USDC’</tspan></text><path class="cls-5" d="M507,54H426.37"/><path class="cls-6" d="M421.12,54l7-3.5L426.37,54l1.75,3.5Z"/><path class="cls-5" d="M507,54H473.5q-10,0-10,10v71q0,10-10,10H426.37"/><path class="cls-6" d="M421.12,145l7-3.5-1.75,3.5,1.75,3.5Z"/><path class="cls-5" d="M507,54H473.5q-10,0-10,10V228q0,10-10,10H426.37"/><path class="cls-6" d="M421.12,238l7-3.5-1.75,3.5,1.75,3.5Z"/><rect class="cls-2" x="497" y="24" width="120" height="60" rx="9"/><text class="cls-3" transform="translate(521.36 50.5)"><tspan class="cls-11">T</tspan><tspan x="5.78" y="0">oken Holder</tspan><tspan x="7.66" y="14.4">p</tspan><tspan class="cls-12" x="14.99" y="14.4">r</tspan><tspan x="19" y="14.4">ovides...</tspan></text><text class="cls-8" transform="translate(302.48 100.5)">Attribute: Whitelisted</text><path class="cls-5" d="M300,145H280.5q-10,0-10-10V64q0-10-10-10H247.37"/><path class="cls-6" d="M242.12,54l7-3.5L247.37,54l1.75,3.5Z"/><rect class="cls-7" x="300" y="115" width="120" height="60" rx="9"/><text class="cls-8" transform="translate(318.76 141.5)">Payment <tspan class="cls-9" x="50.69" y="0">T</tspan><tspan class="cls-10" x="56.24" y="0">oken</tspan><tspan x="0.12" y="14.4">‘Loyalty Points’</tspan></text><rect class="cls-13" x="300" y="208" width="120" height="60" rx="9"/><text class="cls-8" transform="translate(318.76 234.5)">Payment <tspan class="cls-9" x="50.69" y="0">T</tspan><tspan class="cls-10" x="56.24" y="0">oken</tspan><tspan x="8.01" y="14.4">‘Gamer Pay’</tspan></text><text class="cls-8" transform="translate(302.48 191.5)">Attribute: Whitelisted</text><text class="cls-8" transform="translate(307.34 283.5)">No Whitelist Found</text><rect class="cls-7" x="331" y="326" width="286" height="156"/><text class="cls-8" transform="translate(174.59 388.5)"><tspan class="cls-14">W</tspan><tspan x="10.43" y="0">ebsite displays...</tspan></text><rect class="cls-15" x="333" y="329" width="286" height="156"/><rect class="cls-2" x="331" y="326" width="286" height="156"/><path class="cls-5" d="M131.5,84V394q0,10,10,10H324.63"/><path class="cls-6" d="M329.88,404l-7,3.5,1.75-3.5-1.75-3.5Z"/><text class="cls-8" transform="translate(401.92 349.5)"><tspan class="cls-14">W</tspan><tspan x="10.43" y="0">ebsite - Checkout Page</tspan></text><rect class="cls-7" x="479" y="397" width="120" height="29" rx="4.35"/><text class="cls-8" transform="translate(519.21 414.5)">&apos;USDC&apos;</text><rect class="cls-7" x="479" y="433" width="120" height="29" rx="4.35"/><text class="cls-8" transform="translate(498.86 450.5)">&apos;Loyalty Points&apos;</text><text class="cls-8" transform="translate(467.13 383.5)">Select Payment Method:</text><text class="cls-3" transform="translate(344.76 383.5)"><tspan class="cls-16">Y<tspan class="cls-10" x="6.67" y="0">our Cart:</tspan></tspan><tspan class="cls-17"><tspan x="0" y="17">Paddleboa</tspan><tspan class="cls-12" x="58.01" y="17">r</tspan><tspan x="61.79" y="17">d</tspan></tspan><tspan class="cls-11" x="0" y="51">T</tspan><tspan x="5.78" y="51">otal:</tspan><tspan class="cls-17"><tspan x="0" y="68">$132.44</tspan></tspan></text><path class="cls-5" d="M331,361l286.57-1"/><polyline class="cls-18" points="419.02 187.44 421.79 190.21 427.98 184.02"/><polyline class="cls-18" points="420.02 96.73 422.79 99.5 428.98 93.31"/><line class="cls-19" x1="414.96" y1="283.66" x2="422.04" y2="276.58"/><line class="cls-19" x1="422.04" y1="283.66" x2="414.96" y2="276.58"/></svg>